<?xml version="1.0" encoding="iso-8859-1"?>
<!-- Uploaded to: SVG Repo, www.svgrepo.com, Generator: SVG Repo Mixer Tools -->
<!DOCTYPE svg PUBLIC "-//W3C//DTD SVG 1.1//EN" "http://www.w3.org/Graphics/SVG/1.1/DTD/svg11.dtd">
<svg fill="#000000" version="1.1" id="Capa_1" xmlns="http://www.w3.org/2000/svg" xmlns:xlink="http://www.w3.org/1999/xlink" 
	 width="800px" height="800px" viewBox="0 0 434.717 434.717"
	 xml:space="preserve">
<g>
	<path d="M363.558,155.917h-42.71v-38.284C320.848,43.541,286.711,0,218.555,0S116.27,43.541,116.27,117.626v38.284H71.159
		c-18.775,0-34,15.225-34,34v191.556c0,15.666,10.662,29.268,25.874,33.021c32.674,8.057,91.8,20.229,150.926,20.229
		c59.608,0,122.312-11.627,156.828-19.203c15.634-3.428,26.771-17.225,26.771-33.225V189.917
		C397.558,171.136,382.333,155.917,363.558,155.917z M257.996,259.828c-5.358,1.789-11.125-1.102-12.913-6.434
		c-2.23-6.67-10.303-14.463-25.677-14.463c-12.655,0-20.156,8.473-21.026,16.85c-1.082,10.453,7.555,18.633,23.113,21.896
		c31.62,6.623,40.896,27.818,39.223,43.955c-1.728,16.742-14.471,29.9-31.11,33.83v11.736c0,5.631-4.569,10.201-10.199,10.201
		c-5.631,0-10.2-4.57-10.2-10.201v-11.32c-19.781-3.367-31.049-16.219-34.83-27.486c-1.788-5.346,1.095-11.125,6.433-12.914
		c5.372-1.781,11.125,1.102,12.913,6.434c2.23,6.67,10.302,14.463,25.677,14.463c12.654,0,20.155-8.473,21.025-16.85
		c1.081-10.451-7.555-18.633-23.113-21.896c-31.62-6.623-40.896-27.818-39.223-43.955c1.728-16.742,14.471-29.898,31.11-33.83
		v-11.743c0-5.63,4.569-10.2,10.2-10.2c5.63,0,10.199,4.57,10.199,10.2v11.321c19.781,3.367,31.049,16.219,34.83,27.486
		C266.216,252.26,263.333,258.033,257.996,259.828z M269.705,155.917H167.413v-48.511c0-36.951,20.386-56.256,51.143-56.256
		c30.757,0,51.143,19.305,51.143,56.256v48.511H269.705z"/>
</g>
</svg>